<svg width="250" height="250" viewBox="0 0 250 250" fill="none" xmlns="http://www.w3.org/2000/svg">
  <g clip-path="url(#clip0_5801_2)">
    <path fill-rule="evenodd" clip-rule="evenodd" d="M124.878 0.244995C193.845 0.244995 249.755 56.155 249.755 125.122C249.755 194.09 193.845 250 124.878 250C55.91 250 0 194.09 0 125.122C0 56.155 55.91 0.244995 124.878 0.244995ZM204.342 45.6575C184.007 25.3225 155.91 12.745 124.878 12.745C93.845 12.745 65.75 25.3225 45.4125 45.6575C25.0775 65.9925 12.5 94.09 12.5 125.122C12.5 156.155 25.0775 184.25 45.4125 204.587C65.75 224.922 93.845 237.5 124.878 237.5C155.91 237.5 184.007 224.922 204.342 204.587C224.677 184.25 237.255 156.155 237.255 125.122C237.255 94.09 224.677 65.9925 204.342 45.6575Z" fill="#13002B"/>
    <path fill-rule="evenodd" clip-rule="evenodd" d="M155.388 53.1175V197.125C164.71 193.173 173.108 187.46 180.163 180.408C194.31 166.26 203.06 146.713 203.06 125.123C203.06 103.53 194.31 83.985 180.163 69.8375C173.108 62.7825 164.71 57.0725 155.388 53.1175ZM131.075 22.82C184.795 26.025 227.373 70.5975 227.373 125.123C227.373 179.648 184.795 224.22 131.075 227.425V22.82Z" fill="#13002B"/>
    <path fill-rule="evenodd" clip-rule="evenodd" d="M118.918 124.962C118.918 159.427 118.918 193.365 118.918 227.44C65.0875 224.353 22.3825 179.727 22.3825 125.122C22.3825 70.5175 65.0875 25.8925 118.918 22.805C118.918 47.1325 118.918 71.4625 118.918 95.79H94.605V53.0175C85.1875 56.975 76.7075 62.7225 69.5925 69.8375C55.4475 83.985 46.6975 103.53 46.6975 125.122C46.6975 146.712 55.4475 166.26 69.5925 180.408C76.7075 187.52 85.1875 193.268 94.605 197.225V149.275H70.2925V124.962H118.918Z" fill="#13002B"/>
  </g>
  <defs>
    <clipPath id="clip0_5801_2">
      <rect width="250" height="250" fill="white"/>
    </clipPath>
  </defs>
</svg>
