<svg width="25" height="25" viewBox="0 0 25 25" fill="none" xmlns="http://www.w3.org/2000/svg">
<g clip-path="url(#clip0_7_45)">
<path d="M24.8752 5.52372C24.7509 4.87826 24.5311 4.2473 24.2184 3.65072C23.9063 3.05487 23.4981 2.49638 23.0007 1.99896C22.3384 1.33598 21.5648 0.833192 20.7416 0.499013C19.5064 3.80445e-05 18.1622 -0.12506 16.8712 0.125185C16.2258 0.250331 15.5941 0.466981 14.9982 0.780556C14.4039 1.09413 13.8439 1.50077 13.3465 1.99896L10.1116 5.23383C9.45854 5.88539 9.45854 6.94511 10.1116 7.59667C10.7647 8.24823 11.8221 8.24823 12.4745 7.59667L15.7093 4.36029C16.0526 4.0185 16.4425 3.76596 16.8614 3.59506C17.4885 3.341 18.1812 3.27616 18.8412 3.40434C19.1708 3.46845 19.492 3.57982 19.7949 3.73851C20.097 3.89721 20.3808 4.10321 20.6387 4.36029C20.982 4.7059 21.2337 5.09501 21.4046 5.51308C21.6587 6.14022 21.7235 6.83373 21.5954 7.49291C21.5312 7.82328 21.4199 8.14447 21.262 8.44584C21.1018 8.7495 20.8965 9.03329 20.6387 9.2912L17.4038 12.5253C16.7515 13.1776 16.7515 14.2366 17.4038 14.8881C18.0561 15.5397 19.1136 15.5397 19.7659 14.8881L23.0007 11.6525C23.6645 10.9903 24.1665 10.2167 24.4999 9.39345C25.0004 8.15819 25.1248 6.81386 24.8752 5.52372Z" fill="#13002B"/>
<path d="M12.5263 17.4036L9.29067 20.6393C8.94658 20.9818 8.55674 21.2344 8.13862 21.4045C7.51147 21.6593 6.81797 21.7242 6.15879 21.5968C5.82842 21.5319 5.50801 21.4198 5.20513 21.2619C4.90298 21.1024 4.61919 20.8957 4.36133 20.6393C4.01802 20.2944 3.76548 19.9054 3.59531 19.4865C3.34126 18.8602 3.27641 18.1667 3.40381 17.5059C3.46792 17.1763 3.58003 16.8551 3.73799 16.553C3.89819 16.2508 4.10342 15.9671 4.36133 15.7084L7.59697 12.4735C8.24853 11.822 8.24853 10.7638 7.59697 10.1123C6.9439 9.45997 5.88647 9.45997 5.23413 10.1123L1.99927 13.3464C1.3355 14.0101 0.833495 14.7822 0.499315 15.6069C-0.000391718 16.8406 -0.124757 18.1872 0.124706 19.4751C0.249071 20.1205 0.468016 20.7522 0.781591 21.3481C1.09438 21.9439 1.50181 22.5039 1.99927 23.0006C2.66304 23.6636 3.43511 24.1672 4.25835 24.499C5.49277 25.0003 6.83862 25.1247 8.12798 24.8752C8.77417 24.75 9.40513 24.5311 10.0002 24.2183C10.5961 23.9062 11.1561 23.4981 11.6535 23.0006L14.8884 19.765C15.5399 19.1134 15.5399 18.0552 14.8884 17.4037C14.2353 16.7513 13.1778 16.7513 12.5263 17.4036Z" fill="#13002B"/>
<path d="M16.7202 8.27969C16.0686 7.62812 15.0104 7.62812 14.3582 8.27969L8.27827 14.3588C7.62671 15.0111 7.62671 16.0686 8.27827 16.7201C8.93134 17.3731 9.98955 17.3731 10.6411 16.7201L16.7202 10.641C17.3733 9.98867 17.3733 8.93198 16.7202 8.27969Z" fill="#13002B"/>
</g>
<defs>
<clipPath id="clip0_7_45">
<rect width="25" height="25" fill="white"/>
</clipPath>
</defs>
</svg>
