<svg width="35" height="35" viewBox="0 0 35 35" fill="none" xmlns="http://www.w3.org/2000/svg">
<g clip-path="url(#clip0_7_83)">
<path d="M3.67198 13.8866L14.229 21.8588L14.2326 21.8618C15.4047 22.7214 15.9912 23.1514 16.6337 23.3175C17.2013 23.4644 17.7982 23.4644 18.366 23.3175C19.0088 23.1512 19.597 22.72 20.7714 21.8588L31.328 13.8866M30.9827 12.2263L21.3048 4.47765C20.1031 3.51553 19.5018 3.03464 18.8335 2.84368C18.244 2.67519 17.6196 2.66625 17.0255 2.81836C16.3523 2.99074 15.7385 3.45465 14.5106 4.38312L4.13787 12.2267C3.33285 12.8354 2.93085 13.14 2.64062 13.5247C2.38356 13.8654 2.19199 14.2508 2.07526 14.6613C1.94348 15.1248 1.94348 15.6295 1.94348 16.6388V27.3691C1.94348 29.3052 1.94348 30.2737 2.32028 31.0132C2.6517 31.6638 3.18017 32.1922 3.83066 32.5237C4.56942 32.9 5.53702 32.9 7.46935 32.9H27.5307C29.463 32.9 30.4292 32.9 31.168 32.5237C31.8184 32.1922 32.3487 31.6632 32.6801 31.0128C33.0565 30.2741 33.0565 29.3073 33.0565 27.375V16.5252C33.0565 15.5621 33.0565 15.0776 32.9333 14.6301C32.8234 14.231 32.6408 13.8548 32.398 13.5196C32.1238 13.1412 31.7444 12.8362 30.9827 12.2263Z" stroke="#13002B" stroke-width="4" stroke-linecap="round" stroke-linejoin="round"/>
</g>
<defs>
<clipPath id="clip0_7_83">
<rect width="35" height="35" fill="white"/>
</clipPath>
</defs>
</svg>
