<svg width="50" height="50" viewBox="0 0 50 50" fill="none" xmlns="http://www.w3.org/2000/svg">
<path fill-rule="evenodd" clip-rule="evenodd" d="M25 3.125C29.3265 3.125 33.5558 4.40795 37.1531 6.8116C40.7504 9.21526 43.5542 12.6317 45.2099 16.6288C46.8655 20.6259 47.2987 25.0243 46.4547 29.2676C45.6106 33.5109 43.5272 37.4087 40.468 40.468C37.4087 43.5272 33.5109 45.6106 29.2676 46.4547C25.0243 47.2987 20.6259 46.8655 16.6288 45.2099C12.6317 43.5542 9.21526 40.7504 6.8116 37.1531C4.40795 33.5558 3.125 29.3265 3.125 25C3.125 19.1984 5.42968 13.6344 9.53204 9.53204C13.6344 5.42968 19.1984 3.125 25 3.125Z" fill="#CC6699"/>
<path d="M38.7219 12.4875C37.7313 8.60313 31.2891 7.33125 25.1922 9.49063C21.3739 10.7737 17.8462 12.7972 14.8109 15.4453C11.4531 18.5859 10.9172 21.3203 11.1375 22.4625C11.9188 26.4938 17.4391 29.1281 19.7094 31.0828V31.0938C19.0406 31.4234 14.1406 33.9063 12.9906 36.4375C11.7813 39.1125 13.1828 41.0313 14.1125 41.2891C15.5083 41.6251 16.9743 41.5157 18.3048 40.9763C19.6353 40.4369 20.7636 39.4945 21.5313 38.2813C22.1657 37.2983 22.5627 36.1812 22.6907 35.0183C22.8187 33.8554 22.6742 32.6787 22.2688 31.5813C23.3623 31.3034 24.499 31.2381 25.6172 31.3891C29.4547 31.8375 30.2078 34.2328 30.0641 35.2359C29.9965 35.593 29.8527 35.9313 29.6427 36.2279C29.4327 36.5245 29.1613 36.7724 28.8469 36.9547C28.5781 37.1219 28.4953 37.1781 28.5188 37.3031C28.5516 37.4828 28.675 37.4766 28.9047 37.4375C29.4814 37.2559 29.9895 36.9038 30.3621 36.4277C30.7348 35.9516 30.9544 35.3737 30.9922 34.7703C31.0844 32.4266 28.8328 29.7922 24.8453 29.8594C23.6872 29.8263 22.5315 29.9847 21.425 30.3281C21.3703 30.2656 21.3141 30.2031 21.2563 30.1406C18.7906 27.5109 14.2344 25.65 14.4266 22.1141C14.4969 20.8281 14.9438 17.4438 23.1766 13.3375C29.9266 9.97344 35.3297 10.9 36.2641 12.9516C37.5984 15.8828 33.3766 21.3281 26.3672 22.1141C25.5925 22.2713 24.7923 22.2522 24.026 22.058C23.2597 21.8637 22.5469 21.4995 21.9406 20.9922C21.5719 20.5859 21.5172 20.5688 21.3797 20.6438C21.1563 20.7672 21.2984 21.1266 21.3797 21.3391C21.6481 21.8228 22.0104 22.248 22.4453 22.5899C22.8802 22.9317 23.3791 23.1832 23.9125 23.3297C26.6684 23.9285 29.5429 23.6442 32.1281 22.5172C36.3797 20.8781 39.6953 16.3078 38.7219 12.4875ZM20.6531 32.2859C20.9635 33.3558 20.9477 34.4939 20.6078 35.5547C20.5714 35.6651 20.5313 35.7745 20.4875 35.8828C20.4438 35.9912 20.3964 36.0953 20.3453 36.1953C20.0824 36.7333 19.7417 37.2298 19.3344 37.6688C18.0641 39.0547 16.2875 39.5797 15.5266 39.1375C14.7047 38.6609 15.1156 36.7063 16.5891 35.1484C17.7212 34.0289 19.0265 33.0993 20.4547 32.3953L20.6531 32.2859Z" fill="white"/>
</svg>
